<svg width="72" height="72" viewBox="0 0 72 72" fill="none" xmlns="http://www.w3.org/2000/svg">
<circle cx="36" cy="36" r="35" fill="#F35E5E" fill-opacity="0.2" stroke="black" stroke-width="2"/>
<path d="M53.9989 44.9529V50.3724C54.0009 50.8755 53.8977 51.3735 53.6957 51.8344C53.4938 52.2954 53.1976 52.7092 52.8261 53.0493C52.4546 53.3895 52.0161 53.6484 51.5385 53.8096C51.061 53.9708 50.555 54.0306 50.0529 53.9853C44.483 53.3813 39.1328 51.4818 34.432 48.4394C30.0586 45.6659 26.3507 41.9653 23.5716 37.6005C20.5125 32.8878 18.6088 27.5221 18.0147 21.9383C17.9695 21.4388 18.0289 20.9353 18.1894 20.4599C18.3498 19.9846 18.6076 19.5478 18.9465 19.1773C19.2853 18.8069 19.6977 18.5109 20.1574 18.3082C20.6172 18.1056 21.1141 18.0006 21.6167 18.0002H27.0469C27.9254 17.9915 28.777 18.302 29.443 18.8737C30.1091 19.4453 30.5441 20.2392 30.6671 21.1073C30.8963 22.8417 31.3213 24.5446 31.9341 26.1835C32.1777 26.8301 32.2304 27.5328 32.086 28.2084C31.9416 28.884 31.6063 29.5041 31.1196 29.9952L28.8208 32.2895C31.3975 36.8121 35.1496 40.5567 39.6812 43.1284L41.98 40.8341C42.4722 40.3484 43.0935 40.0137 43.7704 39.8696C44.4473 39.7256 45.1514 39.7782 45.7993 40.0212C47.4415 40.6328 49.1478 41.057 50.8856 41.2858C51.7648 41.4096 52.5678 41.8516 53.1419 42.5277C53.7159 43.2038 54.0209 44.067 53.9989 44.9529Z" fill="#F35E5E" stroke="black" stroke-width="2" stroke-linecap="round" stroke-linejoin="round"/>
</svg>
