<svg width="36" height="36" viewBox="0 0 36 36" fill="none" xmlns="http://www.w3.org/2000/svg">
<circle cx="18" cy="18" r="18" fill="#5BE160"/>
<path d="M30.7279 5.27208C27.3523 1.89642 22.7739 0 18 0C13.2261 0 8.64773 1.89642 5.27208 5.27208C1.89642 8.64773 0 13.2261 0 18C0 22.7739 1.89642 27.3523 5.27208 30.7279C8.64773 34.1036 13.2261 36 18 36C22.7739 36 27.3523 34.1036 30.7279 30.7279C34.1036 27.3523 36 22.7739 36 18C36 13.2261 34.1036 8.64773 30.7279 5.27208ZM18 33.5874C9.40525 33.5874 2.41259 26.5949 2.41259 18C2.41259 9.4051 9.4051 2.41259 18 2.41259C26.5949 2.41259 33.5874 9.4051 33.5874 18C33.5874 26.5949 26.5949 33.5874 18 33.5874Z" fill="black"/>
<path d="M15.2873 21.774L9.75254 16.2393L8.04663 17.9452L15.2873 25.1859L27.9156 12.5577L26.2096 10.8518L15.2873 21.774Z" fill="black"/>
</svg>
